<?xml version="1.0" encoding="UTF-8" standalone="no"?>
<!-- Created with Inkscape (http://www.inkscape.org/) -->

<svg
    version="1.1"
    id="svg2"
    xml:space="preserve"
    width="754.12"
    height="683.10669"
    viewBox="0 0 754.12 710"
    fill="currentColor"
    xmlns="http://www.w3.org/2000/svg"
>
  <title>codecentric AG logo</title>
  <defs id="defs6" />
  <g id="g8" transform="matrix(1.3333333,0,0,-1.3333333,0,883.10667)">
    <g id="g10" transform="scale(0.1)">
      <path
          d="m 3016.29,2085.2 c -49.25,49.25 -126.11,54.36 -183.45,14.83 -262.4,-180.92 -560.86,-258.82 -828.18,-258.82 -837.62,0 -1516.797,691.33 -1496.926,1533.4 19.289,817.47 707.316,1461.34 1525.006,1461.34 h 1604.35 c 153.39,0 290.27,-109.96 309.81,-262.1 23.63,-184.07 -119.75,-341.56 -299.25,-341.56 H 2028.18 c -438.17,0 -811.86,-340.03 -828.44,-777.89 -17.43,-460.33 351.99,-840.42 808.53,-840.42 h 1609.3 c 1097.72,0 2017.14,868.42 2037.97,1965.94 21.32,1123.04 -886.01,2043.42 -2004.28,2043.42 -341.81,0 -773.58,-81.11 -1161.51,-370.61 -69.57,-51.92 -77.26,-153.56 -15.88,-214.94 l 165.76,-165.75 c 49.23,-49.24 126.1,-54.34 183.43,-14.81 262.42,180.9 560.86,258.81 828.2,258.81 837.64,0 1516.84,-691.39 1496.92,-1533.46 C 5128.83,3765.13 4440.81,3121.29 3623.12,3121.29 H 2018.83 c -153.37,0 -290.25,109.94 -309.81,262.07 -23.66,184.06 119.74,341.63 299.25,341.63 h 1619.51 c 438.15,0 811.83,340.03 828.4,777.87 17.41,460.32 -352,840.4 -808.53,840.4 H 2038.3 C 940.605,5343.26 21.207,4474.86 0.367188,3377.37 -20.957,2254.34 886.387,1333.9 2004.66,1333.9 c 341.8,0 773.57,81.14 1161.5,370.61 69.57,51.92 77.25,153.56 15.88,214.94 l -165.75,165.75"
          id="path12" />
    </g>
  </g>
</svg>
